<?xml version="1.0" encoding="utf-8"?>
<!-- Generator: Adobe Illustrator 16.0.0, SVG Export Plug-In . SVG Version: 6.00 Build 0)  -->
<!DOCTYPE svg PUBLIC "-//W3C//DTD SVG 1.1//EN" "http://www.w3.org/Graphics/SVG/1.1/DTD/svg11.dtd">
<svg version="1.1" id="Layer_1" xmlns="http://www.w3.org/2000/svg" xmlns:xlink="http://www.w3.org/1999/xlink" x="0px" y="0px"
	 width="42.375px" height="41.66px" viewBox="0 0 42.375 41.66" enable-background="new 0 0 42.375 41.66" xml:space="preserve">
<g>
	<g>
		<g>
			<path fill="#959A9D" d="M20.537,0.556c-1.81,0.136-3.567,0.537-5.315,0.965c-1.714,0.54-3.43,1.15-5.016,2.053
				C8.629,4.47,7.095,5.518,5.813,6.835c-0.688,0.617-1.231,1.361-1.82,2.067C3.729,9.277,3.484,9.665,3.235,10.05
				c-0.258,0.38-0.483,0.779-0.671,1.196c-0.33,0.665-0.66,1.329-0.891,2.034l-0.381,1.042l-0.283,1.071
				c-0.088,0.36-0.191,0.708-0.264,1.079l-0.173,1.141c-0.046,0.368-0.131,0.788-0.139,1.112l-0.047,1.004
				c-0.107,2.972,0.417,5.876,1.516,8.567c2.168,5.397,6.708,9.603,11.98,11.522c0.659,0.244,1.32,0.478,2.006,0.624l1.018,0.252
				c0.346,0.073,0.713,0.112,1.068,0.168l1.073,0.15c0.339,0.031,0.646,0.033,0.971,0.051l0.959,0.043l0.2,0.006l0.129-0.007
				l0.259-0.015l0.518-0.026c2.757-0.131,5.472-0.817,7.933-1.989c4.938-2.334,8.809-6.6,10.711-11.611
				c0.321-0.705,0.563-1.697,0.846-2.687c0.177-1.026,0.402-2.188,0.365-2.853c0.019-1.501-0.516-1.521-1.098-0.986
				c-0.59,0.525-1.181,1.646-1.47,2.286c-1.495,4.153-3.987,7.817-7.216,10.405c-3.201,2.611-7.068,4.119-10.754,4.459l-0.158,0.021
				l-0.079,0.011c0.138,0.004,0.026,0,0.051,0.002h-0.022h-0.043l-0.344,0.008l-0.688,0.012c-0.461,0.01-0.928,0.021-1.315-0.033
				L17.567,38l-1.262-0.254c-1.665-0.406-3.319-1.004-4.79-1.932C8.53,34.041,6.11,31.3,4.703,28.128
				c-0.698-1.584-1.209-3.26-1.384-4.979c-0.155-0.851-0.103-1.72-0.147-2.576c0.083-0.778,0.08-1.836,0.273-2.589
				c0.542-3.312,2.147-6.499,4.403-8.947c2.26-2.477,5.196-4.248,8.348-5.161c1.582-0.452,3.216-0.656,4.855-0.708l0.077-0.004
				l0.019-0.001c0.079,0.002-0.086-0.003-0.062-0.002l0.042,0.002l0.167,0.007l0.335,0.015l0.67,0.028l0.669,0.026
				c0.208,0.02,0.39,0.056,0.587,0.082l1.162,0.16l1.196,0.279c6.366,1.602,11.844,6.63,14.081,13.438
				c0.076,0.24,0.212,0.674,0.361,1.152c0.158,0.48,0.258,1.016,0.414,1.438c0.291,0.84,0.625,1.269,0.896-0.186
				c0.351-1.5-0.022-3.772-0.692-5.688c-0.189-0.471-0.375-0.93-0.551-1.363c-0.197-0.421-0.422-0.8-0.609-1.146
				c-0.361-0.7-0.73-1.194-0.914-1.461c-1.951-2.949-4.623-5.467-7.808-7.21c-1.61-0.818-3.309-1.539-5.11-1.872
				c-0.871-0.238-1.851-0.275-2.771-0.386l-1.296,0.002l-0.647,0.009C20.939,0.496,20.786,0.532,20.537,0.556z M23.051,1.136
				c-0.141-0.29,0.928-0.66,1.07-0.317C24.211,1.091,23.188,1.464,23.051,1.136z"/>
		</g>
	</g>
</g>
<g>
	<g>
		<path fill="#2B2C2B" d="M19.819,26.023c-0.362,0-0.679-0.143-0.95-0.426c-0.274-0.284-0.41-0.607-0.41-0.971
			c0-0.621,0.563-1.39,1.689-2.301l3.157-2.44c1.133-1.004,1.701-1.92,1.701-2.751c0-1.048-0.479-2.015-1.438-2.899
			c-0.926-0.857-1.906-1.286-2.944-1.286c-0.555,0-1.259,0.29-2.111,0.873c-0.854,0.583-1.382,0.873-1.585,0.873
			c-0.36,0-0.672-0.149-0.93-0.445c-0.261-0.3-0.391-0.633-0.391-1.005c0-0.712,0.674-1.421,2.02-2.125
			c1.206-0.633,2.205-0.949,2.997-0.949c1.769,0,3.374,0.71,4.817,2.127c1.443,1.42,2.166,3.031,2.166,4.837
			c0,1.319-0.414,2.489-1.24,3.51c-0.494,0.614-1.409,1.409-2.745,2.385c-1.349,1.002-2.285,1.813-2.813,2.438
			C20.502,25.839,20.171,26.023,19.819,26.023z M19.093,31.171c-0.387,0-0.736-0.133-1.05-0.398
			c-0.312-0.266-0.469-0.589-0.469-0.968c0-0.562,0.146-1.065,0.436-1.519c0.326-0.506,0.743-0.759,1.254-0.759
			c0.845,0,1.268,0.533,1.268,1.599c0,0.498-0.115,0.942-0.342,1.342C19.906,30.938,19.542,31.171,19.093,31.171z"/>
	</g>
</g>
</svg>
