<?xml version="1.0" encoding="UTF-8"?>
<svg width="182px" height="113px" viewBox="0 0 182 113" version="1.1" xmlns="http://www.w3.org/2000/svg" xmlns:xlink="http://www.w3.org/1999/xlink">
    <!-- Generator: Sketch 52.1 (67048) - http://www.bohemiancoding.com/sketch -->
    <title>bubble</title>
    <desc>Created with Sketch.</desc>
    <g id="Page-1" stroke="none" stroke-width="1" fill="none" fill-rule="evenodd">
        <g id="bubble" fill-rule="nonzero">
            <ellipse id="Oval" fill="#FFFFFF" cx="91.5" cy="66" rx="89.5" ry="45"></ellipse>
            <polygon id="Triangle" fill="#FFFFFF" points="41.6328678 4.43016936 69.7137892 22.9775973 50.0667657 27"></polygon>
            <path d="M79.229,20.682 L73.733,21.234 L70.983,21.498 L70.295,21.562 L70.109,21.578 C70.082,21.572 70.056,21.568 70.03,21.566 C69.987,21.569 69.921,21.567 69.818,21.533 C69.643,21.496 69.453,21.44 69.25,21.357 C69.053,21.291 68.852,21.205 68.65,21.114 C65.415,19.603 62.309,17.551 59.246,15.568 C53.13,11.523 47.173,7.233 41.316,2.9 L38.137,0.548 L39.889,4.127 C41.222,6.849 42.488,9.624 43.665,12.406 C44.834,15.189 45.944,18.001 46.769,20.822 C47.167,22.208 47.522,23.694 47.495,24.872 C47.481,24.999 47.491,25.165 47.455,25.242 L47.427,25.386 C47.417,25.429 47.398,25.421 47.395,25.444 C47.282,25.514 47.681,25.411 47.779,25.581 L47.474,25.602 L47.398,25.607 L47.379,25.608 C47.683,25.139 47.458,25.48 47.524,25.376 L47.515,25.378 L47.481,25.388 L47.344,25.428 L45.151,26.068 C43.69,26.495 42.227,26.907 40.798,27.425 C39.369,27.938 37.912,28.366 36.515,28.955 C31.464,30.848 26.583,33.195 21.952,35.966 C17.336,38.752 12.966,42.021 9.253,46.003 C8.797,46.508 8.302,46.975 7.88,47.512 L6.619,49.125 C5.732,50.164 5.069,51.378 4.323,52.525 C3.932,53.088 3.656,53.723 3.351,54.34 L2.452,56.198 L1.771,58.155 C1.553,58.811 1.293,59.444 1.183,60.16 L0.762,62.252 L0.66,62.774 L0.624,63.266 L0.559,64.245 L0.493,65.224 L0.46,65.715 L0.44,66.052 L0.453,66.312 L0.56,68.384 C0.846,71.138 1.595,73.82 2.687,76.323 C3.76,78.844 5.234,81.147 6.889,83.266 C7.692,84.352 8.614,85.326 9.507,86.324 C9.968,86.807 10.455,87.264 10.927,87.735 C11.395,88.212 11.883,88.666 12.391,89.092 C16.367,92.632 20.799,95.545 25.422,97.994 C34.678,102.905 44.607,106.156 54.626,108.387 C64.667,110.585 74.821,111.796 84.964,112.1 C90.001,112.255 95.069,112.211 100.089,111.965 C105.111,111.694 110.109,111.218 115.06,110.526 C124.958,109.145 134.694,106.88 143.984,103.466 C153.244,100.045 162.184,95.512 169.617,88.934 C171.731,87.038 174.395,84.317 176.526,81.118 C178.687,77.946 180.213,74.286 180.797,71.332 C181.416,68.129 181.181,66.724 181.088,66.257 C180.953,65.796 180.722,66.349 180.457,67.443 C180.396,67.719 180.328,68.027 180.256,68.361 C180.157,68.697 180.053,69.06 179.942,69.441 C179.838,69.818 179.728,70.212 179.616,70.62 C179.472,71.014 179.325,71.419 179.177,71.827 C179.021,72.232 178.904,72.65 178.724,73.047 C178.546,73.442 178.37,73.834 178.201,74.217 C177.893,74.994 177.484,75.682 177.178,76.307 C176.728,77.301 176.074,78.196 175.53,79.141 L174.565,80.477 C174.254,80.93 173.919,81.364 173.553,81.778 L172.496,83.048 L171.356,84.251 C170.619,85.071 169.772,85.796 168.97,86.56 C165.677,89.539 161.937,92.045 158.04,94.267 C150.216,98.683 141.673,101.849 133.071,104.213 C115.803,108.857 98.269,110.253 82.7,109.761 C66.924,109.213 51.088,106.595 36.366,100.898 C29.028,98.048 21.964,94.37 15.836,89.482 C12.787,87.034 9.987,84.265 7.698,81.124 C5.441,77.97 3.737,74.421 2.935,70.66 C2.613,68.779 2.358,66.84 2.547,64.954 C2.636,63.978 2.626,62.954 2.881,62.058 L3.173,60.673 L3.317,59.982 L3.555,59.302 C4.68,55.634 6.671,52.244 9.173,49.302 C14.156,43.365 20.718,38.883 27.64,35.373 C31.09,33.567 34.71,32.108 38.341,30.709 C40.189,30.093 42.016,29.418 43.879,28.851 L46.68,28.025 L48.08,27.611 L48.123,27.598 C47.981,27.653 48.365,27.509 48.34,27.516 L48.423,27.476 L48.589,27.396 L48.676,27.352 L48.85,27.22 C48.965,27.126 49.075,27.02 49.174,26.907 C49.284,26.788 49.357,26.679 49.387,26.6 L49.516,26.329 C49.612,26.138 49.647,25.974 49.68,25.811 C49.93,24.499 49.709,23.488 49.522,22.463 C49.311,21.451 49.036,20.48 48.74,19.52 C48.13,17.611 47.428,15.755 46.677,13.926 C45.172,10.265 43.518,6.708 41.747,3.176 L40.094,4.59 C45.253,8.327 50.443,11.982 55.727,15.519 C58.373,17.283 61.037,19.017 63.79,20.653 C65.178,21.466 66.558,22.262 68.122,22.946 C68.531,23.111 68.924,23.278 69.466,23.397 C69.629,23.471 70.318,23.473 70.405,23.459 L70.995,23.406 L73.355,23.196 L78.073,22.773 L80.43,22.561 L82.771,22.488 C85.891,22.417 89.012,22.242 92.125,22.246 C98.42,22.274 104.619,22.618 110.838,23.298 C123.234,24.657 135.494,27.332 147.049,31.858 C152.795,34.167 158.402,36.891 163.5,40.401 C168.604,43.866 173.277,48.129 176.556,53.436 C177.075,54.257 177.943,55.793 178.67,57.587 C178.848,58.038 179.027,58.498 179.209,58.96 C179.375,59.427 179.496,59.91 179.641,60.378 C179.955,61.31 180.102,62.243 180.276,63.06 C180.481,63.873 180.489,64.597 180.59,65.121 C180.668,65.644 180.74,65.978 180.799,66.038 C180.86,66.098 180.908,65.881 180.942,65.303 C180.958,64.727 181.049,63.78 180.863,62.407 C180.592,59.589 179.561,56.128 177.714,52.851 C175.89,49.559 173.32,46.471 170.589,43.913 C165.106,38.769 159.193,35.639 157.128,34.503 C151.399,31.459 145.325,28.983 139.042,27.01 C132.768,25.006 126.284,23.497 119.69,22.392 C113.095,21.289 106.389,20.573 99.626,20.295 C96.214,20.178 92.874,20.083 89.451,20.2 C87.748,20.268 86.044,20.337 84.338,20.405 L81.78,20.512 C80.924,20.539 80.071,20.575 79.229,20.682 Z" id="Path" fill="#B8BBBD"></path>
        </g>
    </g>
</svg>